<svg width="40" height="40" viewBox="0 0 40 40" fill="none" xmlns="http://www.w3.org/2000/svg">
<mask id="mask0_2693_1113" style="mask-type:alpha" maskUnits="userSpaceOnUse" x="0" y="0" width="40" height="40">
<rect width="40" height="40" fill="#D9D9D9"/>
</mask>
<g mask="url(#mask0_2693_1113)">
<path d="M28.25 37.8795C27.8936 37.8795 27.5869 37.7486 27.33 37.487C27.0731 37.2253 26.9446 36.9163 26.9446 36.5599C26.9446 36.1941 27.0685 35.885 27.3162 35.6328C27.5637 35.3806 27.875 35.2545 28.25 35.2545C30.2083 35.2545 31.8693 34.5727 33.2329 33.2091C34.5962 31.8457 35.2779 30.1849 35.2779 28.2266C35.2779 27.8607 35.404 27.5528 35.6562 27.3028C35.9087 27.0528 36.2225 26.9278 36.5975 26.9278C36.9447 26.9278 37.249 27.0575 37.5104 27.317C37.7721 27.5761 37.9029 27.8793 37.9029 28.2266C37.9029 30.9118 36.9585 33.192 35.0696 35.067C33.1807 36.942 30.9075 37.8795 28.25 37.8795ZM3.44458 13.0878C3.08819 13.0878 2.77917 12.9593 2.5175 12.7024C2.25583 12.4455 2.125 12.1386 2.125 11.782C2.125 9.10615 3.06722 6.82378 4.95167 4.9349C6.83583 3.04601 9.11125 2.10156 11.7779 2.10156C12.1438 2.10156 12.4563 2.23351 12.7154 2.4974C12.9746 2.76128 13.1042 3.07142 13.1042 3.42781C13.1042 3.80281 12.9792 4.11309 12.7292 4.35865C12.4792 4.60392 12.1714 4.72656 11.8058 4.72656C9.8475 4.72656 8.18194 5.41059 6.80917 6.77865C5.43639 8.1467 4.75 9.80531 4.75 11.7545C4.75 12.1295 4.62389 12.4455 4.37167 12.7024C4.11944 12.9593 3.81042 13.0878 3.44458 13.0878ZM8.36125 31.5391C5.86125 29.0482 4.60431 26.0598 4.59042 22.5736C4.57653 19.0875 5.815 16.1038 8.30583 13.6224L11.2571 10.6641C11.6229 10.2982 11.9864 10.1917 12.3475 10.3445C12.7086 10.4973 13.0372 10.7149 13.3333 10.9974C13.9353 11.5993 14.2408 12.3239 14.25 13.1711C14.2594 14.0184 13.9539 14.7521 13.3333 15.3724L11.4792 17.2128C11.22 17.472 11.0904 17.7832 11.0904 18.1466C11.0904 18.5102 11.22 18.8216 11.4792 19.0807L11.9517 19.5878C12.6692 20.3053 13.0279 21.1745 13.0279 22.1953C13.0279 23.2161 12.6692 24.0853 11.9517 24.8028C11.7525 25.002 11.6529 25.2405 11.6529 25.5182C11.6529 25.796 11.7525 26.0345 11.9517 26.2336C12.1506 26.4325 12.3889 26.532 12.6667 26.532C12.9444 26.532 13.1829 26.4325 13.3821 26.2336C14.4932 25.1225 15.0499 23.7788 15.0521 22.2024C15.0546 20.626 14.5025 19.2845 13.3958 18.1778L14.7292 16.817C15.3358 16.2103 15.7618 15.5228 16.0071 14.7545C16.2524 13.9859 16.3079 13.2266 16.1737 12.4766L22.6321 6.01823C22.8913 5.76823 23.2038 5.64323 23.5696 5.64323C23.9354 5.64323 24.2479 5.76823 24.5071 6.01823C24.7663 6.2774 24.8958 6.59337 24.8958 6.96615C24.8958 7.33892 24.7663 7.6549 24.5071 7.91406L16.125 16.317L18.4933 18.6849L29.2571 7.95573C29.5163 7.69656 29.8264 7.56698 30.1875 7.56698C30.5486 7.56698 30.8589 7.69656 31.1183 7.95573C31.3775 8.2149 31.5071 8.52392 31.5071 8.88281C31.5071 9.2417 31.3775 9.54615 31.1183 9.79615L20.3892 20.5528L22.75 22.9486L32.3404 13.3653C32.5996 13.1153 32.9121 12.9916 33.2779 12.9941C33.6437 12.9963 33.9562 13.127 34.2154 13.3861C34.4746 13.6456 34.6042 13.9535 34.6042 14.3099C34.6042 14.6663 34.4746 14.9742 34.2154 15.2336L24.6321 24.817L27.0208 27.2336L33.9375 20.317C34.1969 20.0575 34.5094 19.9278 34.875 19.9278C35.2408 19.9278 35.5533 20.0575 35.8125 20.317C36.0719 20.5761 36.2017 20.8839 36.2017 21.2403C36.2017 21.597 36.0719 21.9049 35.8125 22.1641L26.3333 31.6503C23.8428 34.1317 20.8497 35.3609 17.3542 35.3378C13.8589 35.3145 10.8612 34.0482 8.36125 31.5391Z" fill="#F8F9FA"/>
</g>
</svg>
