<svg width="40" height="40" viewBox="0 0 40 40" fill="none" xmlns="http://www.w3.org/2000/svg">
<rect x="0.5" y="0.5" width="39" height="39" rx="19.5" stroke="#F8F9FA"/>
<mask id="mask0_2710_1073" style="mask-type:alpha" maskUnits="userSpaceOnUse" x="4" y="4" width="32" height="32">
<rect x="4" y="4" width="32" height="32" fill="#D9D9D9"/>
</mask>
<g mask="url(#mask0_2710_1073)">
<path d="M10.4 29.2C9.74 29.2 9.175 28.965 8.705 28.495C8.235 28.025 8 27.46 8 26.8V12.4C8 11.74 8.235 11.175 8.705 10.705C9.175 10.235 9.74 10 10.4 10H29.6C30.26 10 30.825 10.235 31.295 10.705C31.765 11.175 32 11.74 32 12.4V26.8C32 27.46 31.765 28.025 31.295 28.495C30.825 28.965 30.26 29.2 29.6 29.2H10.4ZM20 20.59C20.1 20.59 20.205 20.575 20.315 20.545C20.425 20.515 20.53 20.47 20.63 20.41L29.12 15.1C29.28 15 29.4 14.875 29.48 14.725C29.56 14.575 29.6 14.41 29.6 14.23C29.6 13.83 29.43 13.53 29.09 13.33C28.75 13.13 28.4 13.14 28.04 13.36L20 18.4L11.96 13.36C11.6 13.14 11.25 13.135 10.91 13.345C10.57 13.555 10.4 13.85 10.4 14.23C10.4 14.43 10.44 14.605 10.52 14.755C10.6 14.905 10.72 15.02 10.88 15.1L19.37 20.41C19.47 20.47 19.575 20.515 19.685 20.545C19.795 20.575 19.9 20.59 20 20.59Z" fill="#F8F9FA"/>
</g>
</svg>
