<svg width="40" height="40" viewBox="0 0 40 40" fill="none" xmlns="http://www.w3.org/2000/svg">
<rect x="0.5" y="0.5" width="39" height="39" rx="19.5" stroke="#F8F9FA"/>
<path d="M28.3527 8H11.6473C9.63282 8 8 9.63282 8 11.6473V28.3532C8 30.3672 9.63282 32 11.6473 32H28.3527C30.3672 32 32 30.3672 32 28.3532V11.6473C32 9.63282 30.3672 8 28.3527 8ZM17.2319 29.5855H14.1518V19.6775H17.2319V29.5855ZM17.4819 16.7385C17.4758 16.7969 17.4674 16.8546 17.4558 16.9124C17.4441 16.9702 17.4302 17.0269 17.413 17.083C17.3958 17.1391 17.3763 17.1947 17.3535 17.2485C17.3313 17.303 17.3063 17.3558 17.2785 17.408C17.2508 17.4597 17.2208 17.5102 17.188 17.5591C17.1558 17.6074 17.1208 17.6547 17.083 17.7002C17.0463 17.7458 17.0069 17.7891 16.9652 17.8302C16.9235 17.8719 16.8802 17.9113 16.8352 17.9486C16.7896 17.9858 16.7424 18.0208 16.6935 18.0536C16.6446 18.0863 16.5946 18.1163 16.5424 18.1441C16.4908 18.1713 16.4374 18.1963 16.3835 18.2191C16.3296 18.2413 16.2741 18.2613 16.218 18.278C16.1619 18.2952 16.1046 18.3097 16.0474 18.3208C15.9896 18.3325 15.9313 18.3414 15.873 18.3469C15.8146 18.3525 15.7563 18.3552 15.6974 18.3552C15.6385 18.3552 15.5802 18.3525 15.5218 18.3469C15.4635 18.3414 15.4052 18.3325 15.3474 18.3208C15.2902 18.3097 15.2335 18.2952 15.1768 18.278C15.1207 18.2613 15.0657 18.2413 15.0113 18.2191C14.9568 18.1963 14.904 18.1713 14.8524 18.1441C14.8007 18.1163 14.7502 18.0863 14.7013 18.0536C14.6524 18.0208 14.6052 17.9858 14.5602 17.9486C14.5146 17.9113 14.4713 17.8719 14.4296 17.8302C14.3879 17.7891 14.349 17.7458 14.3113 17.7002C14.2746 17.6547 14.2396 17.6074 14.2068 17.5591C14.174 17.5102 14.144 17.4597 14.1163 17.408C14.0885 17.3558 14.0635 17.303 14.0413 17.2485C14.0185 17.1947 13.999 17.1391 13.9818 17.083C13.9646 17.0269 13.9507 16.9702 13.939 16.9124C13.9274 16.8546 13.919 16.7969 13.9135 16.7385C13.9074 16.6802 13.9046 16.6213 13.9046 16.5624C13.9046 16.5035 13.9074 16.4452 13.9135 16.3869C13.919 16.3285 13.9274 16.2707 13.939 16.213C13.9507 16.1557 13.9646 16.0985 13.9818 16.0424C13.999 15.9863 14.0185 15.9307 14.0413 15.8763C14.0635 15.8224 14.0885 15.7696 14.1163 15.718C14.144 15.6657 14.174 15.6157 14.2068 15.5668C14.2396 15.518 14.2746 15.4707 14.3113 15.4252C14.349 15.3802 14.3879 15.3368 14.4296 15.2952C14.4713 15.2535 14.5146 15.2141 14.5602 15.1768C14.6052 15.1396 14.6524 15.1046 14.7013 15.0724C14.7502 15.0396 14.8007 15.0091 14.8524 14.9813C14.904 14.9535 14.9568 14.929 15.0113 14.9063C15.0657 14.8835 15.1207 14.864 15.1768 14.8468C15.2335 14.8302 15.2902 14.8157 15.3474 14.804C15.4052 14.7929 15.4635 14.784 15.5218 14.7785C15.5802 14.7724 15.6385 14.7696 15.6974 14.7696C15.7563 14.7696 15.8146 14.7724 15.873 14.7785C15.9313 14.784 15.9896 14.7929 16.0474 14.804C16.1046 14.8157 16.1619 14.8302 16.218 14.8468C16.2741 14.864 16.3296 14.8835 16.3835 14.9063C16.4374 14.929 16.4908 14.9535 16.5424 14.9813C16.5946 15.0091 16.6446 15.0396 16.6935 15.0724C16.7424 15.1046 16.7896 15.1396 16.8352 15.1768C16.8802 15.2141 16.9235 15.2535 16.9652 15.2952C17.0069 15.3368 17.0463 15.3802 17.083 15.4252C17.1208 15.4707 17.1558 15.518 17.188 15.5668C17.2208 15.6157 17.2508 15.6657 17.2785 15.718C17.3063 15.7696 17.3313 15.8224 17.3535 15.8763C17.3763 15.9307 17.3958 15.9863 17.413 16.0424C17.4302 16.0985 17.4441 16.1557 17.4558 16.213C17.4674 16.2707 17.4758 16.3285 17.4819 16.3869C17.4874 16.4452 17.4902 16.5041 17.4902 16.5624C17.4902 16.6208 17.4874 16.6802 17.4819 16.7385ZM28.7483 23.9098V29.5855H25.6782C25.6782 29.5855 25.6682 24.4626 25.6682 24.1715C25.6682 23.8804 25.5326 23.1931 25.5326 23.1931C25.1743 21.9531 23.9248 22.1714 23.9248 22.1714C22.8592 22.1764 22.5203 22.9992 22.5203 22.9992C22.1814 23.6676 22.2276 24.9526 22.2276 24.9526V29.5855H19.1691V19.6775H22.1009V21.0447C22.1398 21.032 22.1653 21.0142 22.1653 21.0142C23.8826 18.4052 27.0466 19.8258 27.0466 19.8258C28.971 20.7036 28.7483 23.9098 28.7483 23.9098Z" fill="#F8F9FA"/>
</svg>
