<svg width="40" height="40" viewBox="0 0 40 40" fill="none" xmlns="http://www.w3.org/2000/svg">
<path d="M29.155 4.57099C25.7917 0.461573 19.5144 -1.14017 14.6036 0.854619C13.1893 1.42901 11.8689 2.2215 10.8259 3.3559C9.8283 4.43997 9.11516 5.71658 8.63946 7.10742C7.71197 9.8188 7.86735 12.8394 8.63229 15.5675C9.47691 18.5809 10.9685 21.365 12.4084 24.1243C13.9407 27.0593 15.4865 29.9872 17.0275 32.9175C17.4092 33.6445 17.7972 34.3675 18.1853 35.0912C18.6506 35.9596 19.9223 36.3031 20.7534 35.7663C20.8323 35.7152 20.9064 35.66 20.9757 35.6009C21.155 35.6752 21.3654 35.6736 21.5638 35.549C23.9319 34.0663 25.7183 31.6713 27.206 29.3401C28.716 26.9739 29.8363 24.3128 30.6474 21.6294C31.4801 18.8733 32.0203 15.9302 32.01 13.0447C31.9988 9.95461 31.1231 6.97561 29.1558 4.57179L29.155 4.57099ZM28.551 15.7161C28.5239 16.0285 28.492 16.34 28.4554 16.6516C28.445 16.7387 28.4331 16.8249 28.4235 16.912C28.4044 17.083 28.4307 16.8737 28.4371 16.817C28.4195 16.9863 28.3893 17.1565 28.363 17.3242C28.2634 17.9745 28.143 18.6208 28.0036 19.2631C27.7295 20.5253 27.3789 21.77 26.9566 22.9899C26.7446 23.6026 26.5104 24.2066 26.2658 24.8065C26.2355 24.876 26.206 24.9455 26.1757 25.0142C26.1144 25.1548 26.0522 25.2954 25.9885 25.4352C25.853 25.7348 25.7128 26.032 25.5677 26.3276C24.4259 28.6587 23.1191 30.9091 21.602 33.0174C21.5494 33.0909 21.4992 33.1651 21.4482 33.2394C21.4403 33.2235 21.4323 33.2067 21.4235 33.1907C19.947 30.4386 18.4363 27.704 16.9359 24.9647C15.5112 22.362 13.9693 19.7928 12.7662 17.0758C12.7399 17.0167 12.6315 16.7586 12.6315 16.7626C12.5861 16.6508 12.5399 16.5389 12.496 16.4263C12.3654 16.0932 12.2458 15.7553 12.1351 15.4149C11.9144 14.7343 11.7287 14.0417 11.5909 13.3387C11.5606 13.1845 11.5327 13.0303 11.5072 12.8753C11.4976 12.8146 11.4881 12.7539 11.4785 12.694C11.4283 12.376 11.4753 12.7475 11.4897 12.7818C11.3861 12.5374 11.4243 12.1252 11.4116 11.8599C11.3805 11.2432 11.3932 10.6233 11.4538 10.0081C11.4602 9.94662 11.4666 9.88591 11.4729 9.8244C11.5056 9.50485 11.4562 9.87393 11.4594 9.91147C11.4458 9.78206 11.5056 9.61749 11.5295 9.48727C11.5853 9.18689 11.653 8.88891 11.7343 8.59413C11.8148 8.30174 11.9088 8.01255 12.0156 7.72895C12.0283 7.69539 12.0769 7.61151 12.0809 7.56917C12.1383 7.44455 12.1964 7.32072 12.2594 7.19849C12.3877 6.94924 12.5279 6.70559 12.6801 6.46992C12.7566 6.35168 12.8418 6.23984 12.9183 6.12241C12.9183 6.12241 12.9183 6.12241 12.9183 6.12161C12.9662 6.06329 13.014 6.00417 13.0634 5.94665C13.253 5.72696 13.4554 5.51766 13.6689 5.32113C13.7789 5.22048 13.896 5.12781 14.006 5.02795C14.0514 4.98641 14.0602 4.97762 14.049 4.98481C14.0952 4.95605 14.1422 4.92889 14.1701 4.90971C14.4148 4.73955 14.6673 4.58217 14.9279 4.43838C15.0586 4.36648 15.1909 4.29698 15.3247 4.23147C15.4012 4.19392 15.4793 4.15957 15.5558 4.12202C15.5638 4.11803 15.5685 4.11563 15.5749 4.11244C16.1566 3.89754 16.7375 3.7082 17.3462 3.58278C17.4936 3.55242 17.6411 3.52526 17.7893 3.5013C17.8283 3.4949 17.8578 3.49011 17.8817 3.48612C17.8905 3.48532 17.9 3.48452 17.9104 3.48292C18.2243 3.45176 18.5367 3.4262 18.8522 3.41741C19.3885 3.40383 19.9191 3.43739 20.4514 3.49251C20.492 3.4989 20.5327 3.50529 20.5733 3.51168C20.7247 3.53724 20.8753 3.56521 21.0251 3.59636C21.3064 3.65468 21.5861 3.72418 21.8626 3.80327C22.1207 3.87677 22.3757 3.95905 22.6283 4.05012C22.7391 4.09007 22.849 4.13321 22.959 4.17555C23.0132 4.20111 23.0721 4.22188 23.1255 4.24665C23.6466 4.48391 24.1502 4.75952 24.6299 5.07189C24.849 5.21409 25.0562 5.40582 25.2841 5.53044C25.2132 5.49129 25.1685 5.46653 25.1415 5.45135C25.1917 5.48011 25.2897 5.54003 25.3399 5.58157C25.4713 5.69101 25.5996 5.80286 25.7255 5.91789C26.1144 6.27419 26.4666 6.66165 26.8012 7.06907C26.8291 7.10822 26.8578 7.14656 26.8857 7.18571C26.9622 7.29436 27.0363 7.4038 27.1088 7.51565C27.2745 7.77129 27.4275 8.03412 27.5677 8.30494C27.6331 8.43116 27.696 8.55898 27.7558 8.6876C27.7757 8.73153 27.7972 8.77547 27.8171 8.82021C27.8203 8.8298 27.8235 8.84098 27.8291 8.85616C27.9399 9.1861 28.0658 9.50804 28.1606 9.84357C28.249 10.1551 28.3247 10.4707 28.3885 10.7886C28.4251 10.9708 28.4554 11.1537 28.4865 11.3375C28.4952 11.3902 28.4889 11.5899 28.496 11.3862C28.5048 11.1385 28.5112 11.5188 28.5168 11.5747C28.665 12.9552 28.6658 14.3356 28.5478 15.7185L28.551 15.7161Z" fill="#F8F9FA"/>
<path d="M25.1472 5.45069C25.1018 5.42519 25.113 5.43077 25.1472 5.45069V5.45069Z" fill="#F8F9FA"/>
<path d="M21.429 8.09367C21.2306 8.08169 21.0409 8.13601 20.8752 8.23428C20.8369 8.18794 20.7883 8.1488 20.7294 8.11764C20.0274 7.75175 19.3103 7.58878 18.5254 7.75894C17.7828 7.92032 17.0409 8.33014 16.5501 8.91652C15.4521 10.2283 15.2664 12.1272 16.0848 13.6315C16.8545 15.0471 18.5445 15.993 20.1565 15.8508C21.9676 15.691 23.5286 14.5023 24.1429 12.7839C24.8561 10.7883 23.6895 8.23028 21.4298 8.09367H21.429ZM21.817 11.9347C21.8186 11.9299 21.7963 11.9962 21.7844 12.0353C21.7684 12.0721 21.7413 12.136 21.7429 12.132C21.6736 12.2694 21.5955 12.3996 21.5095 12.5266C21.5095 12.5266 21.5095 12.5274 21.5087 12.5282C21.4752 12.5674 21.4409 12.6065 21.4059 12.6441C21.3254 12.7303 21.2393 12.811 21.1501 12.8885C21.1501 12.8837 21.0091 12.9892 20.9708 13.0132C20.8593 13.0827 20.7429 13.1458 20.6242 13.2017C20.57 13.2201 20.5158 13.2392 20.4616 13.256C20.3493 13.2904 20.2362 13.3167 20.1222 13.3407C20.1788 13.3255 19.9246 13.3623 19.8617 13.3639C19.7485 13.3671 19.6369 13.3631 19.5246 13.3551C19.4792 13.3463 19.433 13.3367 19.3875 13.3263C19.276 13.2999 19.1676 13.2664 19.0593 13.2288C19.1118 13.2432 18.8736 13.1426 18.8258 13.1154C18.727 13.0603 18.6322 12.9988 18.5389 12.9341C18.4983 12.9005 18.4585 12.867 18.4194 12.8318C18.3302 12.7511 18.2473 12.6648 18.1676 12.5746C18.1987 12.6033 18.0489 12.4076 18.0218 12.3629C17.9923 12.3133 17.9652 12.263 17.9373 12.2127C17.9381 12.2143 17.9158 12.1647 17.8999 12.1328C17.8879 12.0992 17.868 12.0449 17.8688 12.0465C17.8521 11.989 17.8346 11.9331 17.8194 11.8756C17.8043 11.818 17.7915 11.7605 17.7788 11.7022C17.766 11.6447 17.7605 11.6239 17.7589 11.6175C17.7605 11.6231 17.766 11.6351 17.7636 11.584C17.7573 11.4649 17.7541 11.3467 17.7589 11.2269C17.7613 11.1781 17.7636 11.1286 17.7684 11.0799C17.77 11.0703 17.7732 11.0575 17.7764 11.0407C17.7995 10.9241 17.8282 10.8091 17.8632 10.6956C17.915 10.5302 17.9079 10.5502 17.9899 10.4C18.2059 10.007 18.5525 9.66506 18.9963 9.45975C19.3891 9.27841 19.8553 9.1418 20.2983 9.141C20.2521 9.71699 20.5915 10.1508 21.1246 10.3537C20.9557 10.2898 21.2011 10.3968 21.2513 10.4224C21.3015 10.448 21.3517 10.4727 21.4003 10.5015C21.4146 10.5095 21.4784 10.5534 21.5158 10.5774C21.5366 10.5958 21.5589 10.6149 21.5613 10.6173C21.5995 10.6589 21.6401 10.6988 21.6792 10.7411C21.68 10.7419 21.6808 10.7427 21.6816 10.7435C21.7174 10.7995 21.7501 10.857 21.786 10.9129C21.8083 10.9489 21.8218 10.9656 21.8298 10.9728C21.8306 10.9848 21.8338 11.0056 21.8417 11.0399C21.8585 11.1134 21.8808 11.1829 21.8959 11.2572C21.8959 11.2644 21.8967 11.2716 21.8975 11.2804C21.9015 11.3467 21.9007 11.4122 21.9023 11.4785C21.9023 11.4761 21.8999 11.5384 21.8991 11.5784C21.8935 11.6167 21.8856 11.6758 21.8856 11.6758C21.8664 11.7629 21.8425 11.8476 21.8186 11.9331L21.817 11.9347Z" fill="#F8F9FA"/>
<path d="M36.3726 33.0412C36.1559 32.0458 35.3973 31.2573 34.567 30.7236C33.724 30.1812 32.7065 29.8489 31.7248 29.6723C30.6124 29.4726 29.3455 29.336 28.2706 29.7498C27.214 30.1572 27.3662 31.6511 28.5383 31.7358C29.2953 31.7909 30.1519 31.7095 30.8459 31.8069C31.5606 31.9068 32.3686 32.1345 32.9128 32.4053C33.069 32.4828 33.222 32.5683 33.3694 32.6617C33.4347 32.7033 33.4993 32.7464 33.5622 32.7911C33.5232 32.764 33.43 32.6721 33.6053 32.8247C33.72 32.9245 33.826 33.0292 33.9304 33.1402C34.0857 33.3064 33.9853 33.2129 33.9583 33.1714C34.0116 33.2513 34.0594 33.332 34.1041 33.4167C34.077 33.3751 34.1383 33.5485 34.1694 33.6467C34.1519 33.6451 34.1551 33.9327 34.175 33.8608C34.1248 34.1396 33.9845 34.4001 33.8602 34.5487C33.4626 35.0232 32.7877 35.3699 32.2586 35.5856C31.465 35.9084 30.6475 36.1728 29.8204 36.3933C28.2156 36.8199 26.6005 37.0723 24.9798 37.2425C21.4053 37.6179 17.8037 37.7074 14.2132 37.566C12.6634 37.5053 11.2905 37.4142 9.83713 37.0571C8.49769 36.728 7.12 36.2231 6.15745 35.2876C5.69211 34.8347 5.25944 34.2778 5.37578 33.6028C5.46821 33.066 5.93674 32.5475 6.41323 32.2327C7.10088 31.779 7.89291 31.5129 8.6953 31.3484C9.62678 31.1574 10.5758 31.2341 11.5065 31.0648C11.8626 31.0001 11.912 30.4568 11.6069 30.2947C10.7487 29.8393 9.74789 29.8433 8.79889 29.9567C7.87458 30.067 6.97419 30.2923 6.12797 30.6853C4.56462 31.4115 3.29929 32.8511 3.59889 34.6717C3.88893 36.4332 5.5208 37.6867 7.0196 38.4312C8.6706 39.2516 10.5152 39.5664 12.3335 39.7422C16.3272 40.1272 20.4069 39.9962 24.3941 39.6095C26.3503 39.4194 28.3112 39.1574 30.218 38.6661C31.1614 38.4224 32.0905 38.1212 32.9917 37.7482C33.881 37.3791 34.779 36.9469 35.4347 36.2159C36.2164 35.3451 36.6284 34.2075 36.3742 33.0412H36.3726Z" fill="#F8F9FA"/>
</svg>
