<svg width="40" height="40" viewBox="0 0 40 40" fill="none" xmlns="http://www.w3.org/2000/svg">
<path d="M9.86642 25.4258C8.86203 24.5858 7.65165 24.1619 6.33828 24.3351C4.9786 24.5148 3.73149 25.1846 2.68718 26.0541C1.67002 26.9012 1.06802 28.0669 1.01293 29.393C0.96263 30.6066 1.29077 31.8801 1.66123 33.0274C2.08199 34.3288 2.65604 35.591 3.3802 36.7511C3.74028 37.3276 4.13868 37.8785 4.56183 38.4102C5.00415 38.9651 5.41293 39.484 6.09397 39.7379C6.20814 39.7803 6.32311 39.7659 6.42211 39.7164C6.50275 39.7818 6.59377 39.8369 6.69277 39.8769C7.16383 40.0669 7.84806 39.9319 8.08279 39.421C8.34866 38.8437 8.676 38.2872 8.96503 37.7196C9.25804 37.1455 9.57261 36.5834 9.88159 36.0182C10.5283 34.8341 11.1375 33.6102 11.496 32.3032C12.1491 29.9248 11.8696 27.1016 9.86562 25.4258H9.86642ZM9.42091 30.0142C9.40415 30.5842 9.31153 31.0401 9.1295 31.6501C8.78858 32.7934 8.24726 33.7874 7.65964 34.8836C7.36662 35.4306 7.06962 35.9759 6.79417 36.5323C6.52431 37.0777 6.3263 37.6182 6.15624 38.1882C6.06363 38.0677 5.96622 37.9463 5.86722 37.8194C5.54307 37.4018 5.24447 36.9627 4.96662 36.5132C4.42131 35.6325 3.95026 34.7 3.58938 33.7284C3.23489 32.7751 2.94826 31.7755 2.80375 30.7679C2.67201 29.8465 2.75505 28.8198 3.4257 28.1204C4.06203 27.4569 5.05285 26.989 5.94467 26.7168C6.11073 26.6665 6.36702 26.5978 6.48918 26.5795C6.6289 26.5587 6.7774 26.5571 6.91872 26.5595C6.9275 26.5595 7.24287 26.597 7.19736 26.5826C7.28119 26.6002 7.36503 26.6194 7.44726 26.6441C7.45924 26.6473 7.65085 26.7184 7.65485 26.7152C7.80894 26.7878 7.95584 26.8765 8.09716 26.9715C8.05964 26.9491 8.25525 27.0952 8.26483 27.1048C8.34786 27.1791 8.4277 27.2573 8.50435 27.3387C8.56503 27.4026 8.62331 27.4689 8.68 27.5375C8.68239 27.5463 8.80614 27.7172 8.80934 27.7228C8.91393 27.8824 8.99856 28.0509 9.09117 28.2178C9.10794 28.2473 9.12072 28.2697 9.1303 28.2856C9.13588 28.3032 9.14387 28.3248 9.15425 28.3535C9.20614 28.4964 9.25485 28.6401 9.29477 28.7862C9.32431 28.8964 9.34586 29.0074 9.37221 29.1176C9.38099 29.1551 9.38738 29.1807 9.39297 29.1982C9.39377 29.223 9.39616 29.2573 9.39936 29.3052C9.41772 29.5407 9.4265 29.7763 9.42012 30.0134L9.42091 30.0142Z" fill="#F8F9FA"/>
<path d="M7.64642 30.6616C7.62885 30.5291 7.61129 30.3973 7.59293 30.2648C7.52187 30.0125 7.39412 29.793 7.20969 29.6069C7.16179 29.5494 7.13305 29.5423 7.04362 29.4736C6.94941 29.3802 6.83764 29.3147 6.70989 29.2788C6.64921 29.2389 6.58454 29.2125 6.51588 29.1997C6.38175 29.1814 6.24762 29.1638 6.11269 29.1455H6.09831C6.08394 29.1455 6.07037 29.1455 6.056 29.1455C5.84762 29.1375 5.65281 29.1814 5.47237 29.2764C5.28474 29.3379 5.12187 29.4417 4.98454 29.5902C4.83684 29.7275 4.73225 29.8904 4.67077 30.078C4.57576 30.2584 4.53265 30.4532 4.53983 30.6616C4.5582 30.7958 4.57576 30.9299 4.59412 31.0648C4.66598 31.3219 4.79612 31.5447 4.98374 31.7339L5.29033 31.971C5.52666 32.1083 5.78215 32.177 6.0552 32.1778C6.21169 32.1778 6.34582 32.1762 6.51428 32.1235L6.52786 32.1211L6.88953 31.9686C7.06837 31.8744 7.11947 31.8225 7.20889 31.7171C7.3542 31.5822 7.4572 31.4217 7.51708 31.2373C7.61049 31.0592 7.6536 30.8676 7.64562 30.6624L7.64642 30.6616Z" fill="#F8F9FA"/>
<path d="M37.9972 0.298314C36.438 -0.336416 34.525 0.239232 33.4799 1.53584C32.5226 2.72386 32.4084 4.37177 32.9426 5.77057C33.2707 6.63125 33.8352 7.38175 34.4731 8.03803C34.7829 8.3566 35.1086 8.66638 35.4663 8.93145C35.7921 9.17257 36.1106 9.4576 36.5082 9.53744C36.7182 9.6564 37 9.6564 37.2252 9.5542C37.6787 9.34821 37.8551 8.82366 38.0667 8.4045C38.2887 7.96698 38.5194 7.53424 38.7509 7.10151C39.1813 6.29512 39.6292 5.46558 39.8424 4.56977C40.236 2.91388 39.6803 0.983344 37.9972 0.298314ZM38.0803 4.38294C37.8879 5.14462 37.5278 5.84402 37.1901 6.54821C37 6.94422 36.806 7.33863 36.6072 7.73065C36.533 7.87756 36.4563 8.01728 36.3901 8.1562C36.2072 7.96778 36.0244 7.78175 35.836 7.59811C35.3793 7.15261 34.9505 6.67835 34.6144 6.13305C34.042 5.2053 33.7018 3.97576 34.1673 2.92905C34.4004 2.4053 34.8731 2.06119 35.412 1.9055C35.9549 1.74901 36.5705 1.64921 37.1238 1.80091C38.2392 2.1075 38.3174 3.44243 38.0803 4.38135V4.38294Z" fill="#F8F9FA"/>
<path d="M36.7249 3.81302C36.6937 3.70205 36.6378 3.60544 36.5564 3.524L36.4239 3.42181C36.3217 3.36272 36.2115 3.33239 36.0933 3.33239C36.0031 3.32919 35.9193 3.34756 35.841 3.38907C35.7596 3.41542 35.6893 3.46093 35.6303 3.5248C35.5664 3.58388 35.5209 3.65414 35.4945 3.73558C35.4538 3.81382 35.4346 3.89765 35.4378 3.98787C35.4458 4.04616 35.4538 4.10364 35.461 4.16193C35.4921 4.2729 35.548 4.36951 35.6295 4.45095L35.762 4.55314C35.8642 4.61223 35.9744 4.64257 36.0925 4.64257C36.1828 4.64576 36.2666 4.6274 36.3448 4.58588C36.4263 4.55953 36.4965 4.51402 36.5556 4.45015C36.6195 4.39107 36.665 4.32081 36.6913 4.23937C36.7321 4.16113 36.7512 4.0773 36.748 3.98708C36.74 3.92879 36.7321 3.87131 36.7249 3.81302Z" fill="#F8F9FA"/>
<path d="M34.2197 22.0497C33.6025 19.4037 31.1658 17.8948 28.7378 17.1355C26.0536 16.2964 23.2025 16.1127 20.4097 15.9954C17.7023 15.882 14.9606 15.8716 12.3586 15.2696C11.7359 15.1251 11.1091 14.9383 10.5933 14.6732C10.0273 14.3818 9.73905 14.179 9.34304 13.7511C9.03485 13.4181 8.82408 13.062 8.70751 12.5966C8.65481 12.3866 8.63645 12.2341 8.64364 11.9403C8.65002 11.6824 8.68356 11.4796 8.77937 11.1562C9.42208 8.9782 12.0185 7.69756 14.0281 6.82491C16.2652 5.85405 18.6564 5.35984 21.0564 5.24726C23.5323 5.1307 25.937 5.34946 28.2979 5.96263C28.9007 6.11912 29.5187 6.20774 30.1295 6.3283C30.9941 6.49916 31.5722 5.33988 30.7498 4.85764C28.5047 3.54267 25.763 3.08279 23.1889 3.01493C20.6165 2.94786 18.0744 3.35904 15.6097 4.0776C13.1626 4.79137 10.6061 5.8796 8.67078 7.57461C6.64044 9.35185 5.57138 12.4425 7.28316 14.8105C8.99653 17.1802 11.9826 17.7016 14.7027 18.0337C17.482 18.373 20.2883 18.3602 23.0748 18.6149C24.4161 18.7371 25.6616 18.9159 27.0285 19.2696C27.6369 19.4269 28.2341 19.6153 28.8201 19.8405C28.8408 19.8485 28.8544 19.8533 28.864 19.8572C28.9191 19.8812 28.9742 19.9059 29.0285 19.9307C29.1594 19.9906 29.2887 20.0536 29.4165 20.1199C29.6887 20.2604 29.953 20.4145 30.2069 20.587C30.2428 20.6117 30.381 20.7115 30.3897 20.7155C30.4816 20.7898 30.5718 20.8672 30.6588 20.9471C30.7618 21.0421 30.8616 21.1403 30.9566 21.2425C31.0053 21.2944 31.1889 21.5315 31.1642 21.4892C31.3023 21.6896 31.4269 21.898 31.5307 22.1175C31.5283 22.1207 31.5929 22.282 31.6073 22.3283C31.6576 22.4824 31.6983 22.6397 31.7319 22.7986C31.7446 22.86 31.755 22.9215 31.7654 22.9838C31.7654 22.9878 31.7654 22.991 31.7654 22.9958C31.767 23.1379 31.7854 23.2808 31.7862 23.4237C31.7869 23.5674 31.7814 23.7103 31.771 23.854C31.7686 23.8884 31.7646 23.9227 31.7614 23.957C31.7582 23.977 31.747 24.0624 31.7367 24.1191C31.6864 24.3834 31.6185 24.6445 31.5323 24.9C31.5059 24.9782 31.4772 25.0556 31.4476 25.1331C31.3838 25.2752 31.3135 25.4149 31.2376 25.5515C31.1674 25.6784 31.0931 25.8022 31.0133 25.9235C30.9806 25.973 30.856 26.1455 30.8249 26.1902C30.8017 26.2173 30.7722 26.2533 30.7706 26.2556C30.7155 26.3187 30.662 26.3818 30.6053 26.4441C30.5071 26.5519 30.4049 26.6564 30.2995 26.7578C30.1941 26.8592 30.0864 26.9574 29.9754 27.0533C29.9195 27.1012 29.862 27.1483 29.8053 27.1946C29.8053 27.1946 29.8045 27.1946 29.8037 27.1962C29.5498 27.3822 29.2864 27.5554 29.0133 27.7119C28.7754 27.8485 28.5311 27.9746 28.282 28.0896C28.2652 28.0976 28.187 28.1327 28.1414 28.1535C28.1127 28.1654 28.0832 28.1782 28.0792 28.1798C27.9211 28.2413 27.763 28.3004 27.6033 28.3554C26.9885 28.567 26.3554 28.7203 25.7159 28.8337C25.5418 28.8648 25.367 28.8928 25.1913 28.9175C25.185 28.9183 25.181 28.9191 25.1754 28.9199C25.1634 28.9207 25.1418 28.9231 25.1059 28.9271C25.0309 28.9359 24.955 28.9447 24.88 28.9527C24.5023 28.9926 24.1231 29.0221 23.7438 29.0437C23.0341 29.0844 22.3235 29.098 21.6129 29.1059C20.183 29.1211 18.749 29.1107 17.3239 29.2433C17.4365 29.1507 17.5466 29.062 17.6528 28.9814C18.1526 28.599 18.674 28.27 19.1347 27.8389C19.8476 27.1714 19.1091 25.9131 18.179 26.1966C16.8424 26.6045 15.573 27.5858 14.5223 28.4864C13.4404 29.4133 12.1454 30.6125 12.5382 32.1982C12.7378 33.0053 13.3558 33.5858 14.1343 33.8357C14.7482 34.0329 15.4245 34.0113 16.06 34.0888C16.0153 34.0848 16.4049 34.1423 16.456 34.1511C16.5989 34.1758 16.7418 34.203 16.8848 34.2317C17.2177 34.2988 17.5474 34.3778 17.8748 34.4672C18.5766 34.6596 19.2528 34.9231 19.9506 35.1259C21.3311 35.5275 22.1917 33.5131 20.9311 32.801C20.2987 32.4441 19.6097 32.187 18.9031 31.9938C19.1722 31.9802 19.442 31.969 19.7111 31.9602C21.1315 31.9131 22.555 31.9147 23.973 31.7998C26.7738 31.573 29.5179 30.8888 31.7167 29.058C33.7327 27.379 34.8273 24.6437 34.2221 22.0513L34.2197 22.0497Z" fill="#F8F9FA"/>
</svg>
