<svg width="40" height="40" viewBox="0 0 40 40" fill="none" xmlns="http://www.w3.org/2000/svg">
<g clip-path="url(#clip0_2777_7196)">
<path d="M39.3387 15.4886C38.9842 14.7174 38.3638 14.0827 37.8137 13.4447C37.3139 12.8659 36.8021 12.2974 36.28 11.7385C36.2752 11.733 36.2696 11.7274 36.2648 11.7226C36.3135 11.6028 36.3447 11.4743 36.3574 11.3393C36.4804 10.0196 36.597 8.70142 36.6792 7.37846C36.7183 6.74533 36.771 6.11219 36.7742 5.47746C36.7758 5.1605 36.7774 4.84353 36.7782 4.52657C36.7782 4.43395 36.7822 4.33734 36.7862 4.23994C36.9243 4.10181 37.0273 3.92776 37.0744 3.72417C37.2125 3.11818 36.8916 2.36369 36.2249 2.22796C34.8868 1.95651 33.5015 1.74573 32.1347 1.72497C31.4457 1.71459 30.7103 1.69782 30.0357 1.84313C29.7993 1.89423 29.4672 1.99243 29.191 2.14732C28.9427 2.21918 28.7135 2.4084 28.6225 2.65032C28.3854 3.27946 28.4421 4.05391 28.3598 4.71818C28.3582 4.72936 28.3566 4.74134 28.355 4.75251C27.4217 4.07866 26.466 3.43994 25.4856 2.84832C24.68 2.36209 23.8552 1.92138 22.9842 1.5613C22.5993 1.40241 22.1938 1.30501 21.7842 1.23395C21.4209 1.17088 21.0744 1.20601 20.7247 1.26828C20.3646 0.74453 19.69 0.636745 19.1351 0.913791C13.7914 3.58365 8.76701 6.85151 4.14106 10.6256C3.50234 11.1469 2.89476 11.7026 2.29036 12.2631C1.97899 12.5521 1.70114 12.8723 1.42011 13.19C1.12789 13.5214 0.945055 13.8942 0.744656 14.2846C0.574596 14.616 0.866014 15.1509 1.28358 14.9856C1.59975 14.8603 1.94466 14.7605 2.24086 14.5944C2.55783 14.4172 2.86921 14.1825 3.16621 13.9725C3.23408 13.9246 3.30114 13.8759 3.36821 13.8264C3.33867 14.0523 3.31232 14.2791 3.29316 14.5082C3.23647 15.1725 3.18298 15.8351 3.14945 16.501C3.11671 17.1389 3.08398 17.7761 3.05124 18.414C3.01531 19.1094 3.05843 19.9118 3.4217 20.5226C3.76422 21.099 4.55623 21.0575 4.90833 20.5226C5.11591 20.2072 5.14625 19.9357 5.22689 19.5789C5.31072 19.2044 5.35783 18.8827 5.35623 18.4938C5.35224 17.8296 5.34905 17.1653 5.34506 16.501C5.34186 15.8623 5.3203 15.226 5.29476 14.588C5.26841 13.9158 5.18937 13.2627 5.13188 12.5952C5.12869 12.5545 5.1223 12.5154 5.11512 12.4779C6.2233 11.6316 7.31711 10.7717 8.45484 9.96369C10.8389 8.26948 13.3171 6.70621 15.8736 5.28505C17.3387 4.47068 18.8301 3.70341 20.3431 2.98245C20.4532 2.92976 20.5475 2.8579 20.6265 2.77168C20.7566 2.86269 20.8884 2.95052 21.0297 3.01998C21.3586 3.18126 21.6804 3.35371 22.0069 3.51898C22.6976 3.86948 23.3522 4.27187 23.9894 4.711C24.6025 5.13415 25.2029 5.57487 25.8065 6.0116C26.1075 6.22876 26.4053 6.44912 26.7023 6.67187C27.365 7.17088 28.1906 7.91579 29.0888 7.80241C29.6181 7.73535 30.066 7.32577 30.2688 6.83235C30.5586 6.12577 30.2992 5.44074 30.2792 4.71898C30.2712 4.44034 30.2688 4.15211 30.2512 3.86469C30.3502 3.87507 30.4461 3.88225 30.5355 3.88864C31.1207 3.93096 31.7027 3.97008 32.2864 4.02916C33.2421 4.12577 34.1666 4.26229 35.1087 4.46589C35.0624 4.72138 35.0153 4.97686 34.969 5.23235C34.8437 5.91659 34.1706 13.3992 34.1978 13.428C34.1946 13.4543 34.1906 13.4807 34.1882 13.5086C34.1155 14.529 34.0804 15.5461 34.0524 16.5689C34.0245 17.5837 33.995 18.6168 34.078 19.6292C34.1275 20.2272 34.5538 20.7405 35.1894 20.7405C35.8249 20.7405 36.26 20.2304 36.3007 19.6292C36.3686 18.616 36.3231 17.5837 36.28 16.5689C36.268 16.2823 36.2544 15.9964 36.2409 15.7106C36.6824 16.2288 37.1231 16.7294 37.6764 17.1525C38.098 17.4743 38.8029 17.3098 39.1502 16.9625C39.5574 16.5553 39.5686 15.9852 39.3403 15.4886H39.3387Z" fill="#F8F9FA"/>
<path d="M20.7453 32.544C20.7453 32.4211 20.7142 32.3069 20.6527 32.2015C20.5976 32.033 20.5042 31.8877 20.3716 31.7648C20.2798 31.6937 20.188 31.6235 20.097 31.5524C20.097 31.5524 20.097 31.5524 20.0962 31.5524C20.0962 31.5524 20.0954 31.5524 20.0946 31.5524C19.9964 31.4973 19.8934 31.4534 19.784 31.4215C19.7816 31.4207 19.7784 31.4191 19.776 31.4183C19.7161 31.3967 19.796 31.4207 19.5932 31.3927C19.4128 31.352 19.2323 31.36 19.0519 31.4167C18.9441 31.4622 18.8355 31.5077 18.7277 31.5532C18.6359 31.6243 18.5441 31.6945 18.4531 31.7656C18.382 31.8574 18.3118 31.9492 18.2407 32.0402L18.1042 32.3644C18.0475 32.5448 18.0395 32.7253 18.0802 32.9057C18.0802 33.0286 18.1114 33.1428 18.1728 33.2482C18.2048 33.3632 18.2631 33.463 18.3477 33.5476C18.4084 33.6498 18.489 33.7312 18.5912 33.7911C18.7221 33.9109 18.8762 33.9923 19.0535 34.0338C19.174 34.0498 19.2938 34.0666 19.4144 34.0825C19.5349 34.0666 19.6547 34.0498 19.7752 34.0338C19.883 33.9883 19.9916 33.9428 20.0994 33.8973C20.1912 33.8263 20.283 33.756 20.374 33.6849C20.5066 33.562 20.6 33.4159 20.6551 33.2482C20.7165 33.142 20.7477 33.0278 20.7477 32.9057C20.7804 32.7851 20.7804 32.6654 20.7477 32.5448L20.7453 32.544Z" fill="#F8F9FA"/>
<path d="M30.1865 23.9135C30.1498 23.8879 30.145 23.8863 30.2744 23.9782C30.2744 23.9782 30.2728 23.9774 30.2728 23.9766C30.244 23.9558 30.2153 23.935 30.1865 23.9135Z" fill="#F8F9FA"/>
<path d="M35.9117 27.375C35.4103 25.6472 34.5257 24.0488 33.269 22.7562C32.1584 21.6145 30.794 20.7235 29.3616 20.0408C28.1576 19.4668 26.9097 19.0021 25.6459 18.5813C26.2678 16.8863 26.6367 15.1306 26.2519 13.2991C25.7976 11.133 24.1584 9.3486 21.9445 8.96298C19.78 8.58613 17.3065 9.09312 15.4279 10.226C13.5357 11.367 12.0834 13.426 12.1345 15.6991C12.1696 17.2688 12.8666 18.6197 13.7936 19.8221C11.2523 20.1502 8.76762 20.9973 6.8794 22.7801C4.24546 25.2672 3.37281 29.054 3.57481 32.5606C3.64267 33.7342 3.84706 34.9079 4.08499 36.0576C4.3261 37.2209 4.63748 38.3402 5.16842 39.4037C5.46063 39.9881 6.34526 39.6831 6.35405 39.0827C6.38039 37.1809 5.83828 35.3095 5.70335 33.4117C5.58279 31.7278 5.59796 30.1191 6.00674 28.5318C6.37002 27.1211 6.98399 25.7957 7.98119 24.7674C8.96802 23.7494 10.1976 23.1035 11.5301 22.7107C11.9477 22.5877 12.3724 22.4871 12.8004 22.4057C13.0063 22.3666 13.2123 22.333 13.4191 22.3019C13.4295 22.3003 13.4654 22.2955 13.4958 22.2923C13.6123 22.2787 13.7289 22.2652 13.8455 22.2532C14.7189 22.1662 15.5972 22.1478 16.4746 22.1726C17.6067 22.2053 18.0874 20.7897 17.3664 20.0185C17.0758 19.7071 16.7868 19.3941 16.5089 19.0708C16.3828 18.9239 16.2582 18.7754 16.1369 18.6245C16.1193 18.6021 16.057 18.5207 16.0307 18.4863C15.966 18.3985 15.9014 18.3107 15.8391 18.2213C15.6235 17.9115 15.4239 17.5897 15.253 17.2528C15.2043 17.157 15.1572 17.0596 15.1133 16.9606C15.1077 16.943 15.1006 16.9215 15.091 16.8943C15.0199 16.6819 14.9521 16.4704 14.9018 16.2516C14.885 16.1805 14.8714 16.1087 14.8586 16.0376C14.8546 16.0065 14.8491 15.9658 14.8491 15.9458C14.8451 15.7374 14.8379 15.533 14.8499 15.3247C14.8499 15.3143 14.8507 15.3063 14.8515 15.2975C14.873 15.1833 14.8962 15.07 14.9257 14.9566C14.9465 14.8775 14.9696 14.7985 14.9952 14.7203C15.0119 14.6692 15.079 14.4959 15.0718 14.5039C15.1461 14.3426 15.2315 14.1861 15.3233 14.0344C15.3664 13.9634 15.4111 13.8931 15.4574 13.8245C15.4686 13.8077 15.6115 13.6249 15.6067 13.6249C15.693 13.5235 15.7816 13.4237 15.8758 13.3286C15.9636 13.24 16.0538 13.1538 16.1473 13.0708C16.1736 13.0476 16.3229 12.9278 16.3341 12.9159C16.6311 12.7003 16.9481 12.5103 17.2754 12.3466C17.3824 12.2931 17.491 12.2412 17.6004 12.1933C17.6195 12.1861 17.6419 12.1781 17.6706 12.1678C17.899 12.0839 18.1273 12.0057 18.3612 11.9378C18.7652 11.8205 19.174 11.735 19.5884 11.6632C19.6147 11.6584 19.6347 11.6552 19.653 11.652C19.7704 11.6376 19.8878 11.6264 20.0051 11.6169C20.2247 11.6001 20.4451 11.5913 20.6646 11.5945C20.8491 11.5969 21.0367 11.6041 21.2211 11.6241C21.253 11.6296 21.3153 11.6408 21.3377 11.6464C21.463 11.6783 21.59 11.7007 21.7145 11.7358C21.7848 11.7558 22.0914 11.8748 22.0475 11.8484C22.1433 11.8947 22.2383 11.9442 22.3293 11.9993C22.3716 12.0249 22.5552 12.1542 22.5329 12.1302C22.6367 12.2181 22.7341 12.3131 22.8275 12.4121C22.877 12.4648 22.9225 12.5191 22.9688 12.5742C22.984 12.5949 23 12.6173 23.0079 12.6308C23.1069 12.7993 23.2083 12.963 23.3002 13.1354C23.3129 13.1594 23.3233 13.1777 23.3313 13.1929C23.3728 13.2991 23.4111 13.4069 23.4455 13.5155C23.5109 13.7247 23.5588 13.9354 23.6035 14.1494C23.6075 14.167 23.6107 14.1813 23.6131 14.1949C23.6251 14.3123 23.6347 14.4304 23.6403 14.5486C23.6507 14.7841 23.6459 15.0205 23.6291 15.256C23.6235 15.3326 23.6155 15.4093 23.6075 15.4859C23.6035 15.4883 23.5572 15.7869 23.5493 15.8268C23.4447 16.3562 23.2898 16.8736 23.1069 17.3805C23.0207 17.6193 22.9289 17.8556 22.8315 18.0895C22.8163 18.1239 22.7844 18.1981 22.7796 18.2093C22.699 18.3889 22.6199 18.5686 22.5377 18.7474C22.1481 19.6009 22.4499 20.5278 23.3856 20.832C24.0914 21.0612 24.7956 21.2943 25.4934 21.545C25.8255 21.6648 26.1552 21.7877 26.4842 21.9171C26.6455 21.9801 26.8051 22.0456 26.9656 22.1119C26.976 22.1167 26.9872 22.1215 27.0008 22.127C27.095 22.1686 27.1892 22.2101 27.2834 22.2524C27.9341 22.5462 28.572 22.8712 29.1828 23.2424C29.4926 23.43 29.7968 23.6272 30.0906 23.8388C30.1233 23.8628 30.156 23.8867 30.1888 23.9107C30.2143 23.9282 30.2542 23.957 30.2734 23.973C30.2734 23.973 30.2734 23.973 30.2742 23.9738C30.2774 23.9761 30.2806 23.9785 30.2838 23.9809C30.2806 23.9785 30.279 23.9777 30.2758 23.9754C30.4299 24.1007 30.5816 24.2268 30.7293 24.3594C30.9824 24.5861 31.2235 24.8257 31.4511 25.0779C31.5676 25.2073 31.6778 25.3398 31.7888 25.474C31.792 25.4779 31.7936 25.4811 31.7968 25.4859C31.8726 25.5921 31.9493 25.6983 32.0219 25.8077C32.2215 26.1063 32.4019 26.4177 32.564 26.7386C32.6047 26.8185 32.6439 26.8991 32.6822 26.9805C32.6766 26.9694 32.7477 27.1298 32.7788 27.1977C32.7972 27.2448 32.8195 27.2999 32.8251 27.3151C32.873 27.4412 32.9185 27.5682 32.9624 27.6959C33.0854 28.0592 33.1892 28.4288 33.2746 28.8025C33.3153 28.9789 33.352 29.1562 33.384 29.3342C33.4008 29.4237 33.4159 29.5131 33.4303 29.6025C33.4391 29.656 33.4598 29.8229 33.4646 29.8492C33.5517 30.658 33.578 31.4692 33.5453 32.2827C33.5253 32.7913 33.4838 33.2991 33.4279 33.8053C33.4167 33.9067 33.4039 34.0081 33.3928 34.1087L33.3736 34.2604C33.4023 34.0496 33.3888 34.151 33.3329 34.5638C33.3025 34.8057 33.277 35.0484 33.2443 35.2903C33.2403 35.3167 33.2355 35.351 33.2283 35.3981C33.2099 35.525 33.1916 35.652 33.1724 35.7781C33.1341 36.0312 33.0934 36.2851 33.0518 36.5374C32.9648 37.0684 32.8714 37.5977 32.778 38.1278C32.6582 38.8097 32.9608 39.5921 33.7057 39.7622C34.3884 39.9179 35.1668 39.557 35.3401 38.8344C36.2407 35.0803 37.0135 31.1793 35.9093 27.3734L35.9117 27.375Z" fill="#F8F9FA"/>
<path d="M26.9741 28.058C26.9645 28.0556 26.9549 28.0532 26.9453 28.0508C26.9541 28.0532 26.9637 28.0556 26.9741 28.058Z" fill="#F8F9FA"/>
<path d="M27.0088 28.0798C27.0088 28.0798 27.0032 28.0758 27 28.0742C27 28.0742 27 28.0742 27 28.0758C27.0032 28.0782 27.0056 28.079 27.0088 28.0814C27.0088 28.0814 27.0088 28.0814 27.0088 28.0806V28.0798Z" fill="#F8F9FA"/>
<path d="M29.5316 27.3384C29.0342 25.8382 27.6586 25.3376 26.1959 25.3289C23.4526 25.3129 20.6718 25.5588 17.9748 26.0578C16.651 26.3029 15.3376 26.6055 14.0402 26.9656C12.7787 27.3153 11.1867 27.7808 10.9201 29.2562C10.7931 29.9564 10.853 30.6702 10.8777 31.3768C10.9041 32.1616 10.9384 32.9456 10.9799 33.7289C11.0199 34.4897 11.0861 35.2442 11.1724 36.0011C11.2187 36.4059 11.2179 36.8674 11.3241 37.2602C11.3807 37.4718 11.463 37.6841 11.5508 37.8941C11.3967 37.9197 11.2434 37.946 11.0909 37.9692C10.3811 38.0786 10.3708 39.3137 11.0909 39.4127C11.7336 39.5013 12.3819 39.6243 13.0286 39.6722C13.6586 39.7185 14.2941 39.7217 14.9249 39.7456C16.2159 39.7959 17.5053 39.7991 18.7971 39.8055C21.352 39.8175 23.9069 39.8151 26.4626 39.8127C27.1133 39.8127 27.7368 39.241 27.7073 38.568C27.6889 38.1592 27.4861 37.7792 27.1708 37.5492C27.1756 37.5093 27.1803 37.4694 27.1859 37.4303C27.1875 37.4191 27.1891 37.4063 27.1915 37.3903C27.2155 37.2203 27.2418 37.0502 27.269 36.881C27.3744 36.2271 27.5029 35.5764 27.653 34.932C27.9492 33.6666 28.3308 32.4203 28.7971 31.2067C28.8498 31.0694 28.9033 30.932 28.9584 30.7955C28.9728 30.7604 29.063 30.5392 29.0598 30.544C29.2075 30.1895 29.3696 29.839 29.4829 29.4718C29.6897 28.8003 29.7576 28.0155 29.5324 27.3376L29.5316 27.3384ZM18.7955 37.4566C17.53 37.4829 16.2662 37.5053 15.0023 37.5748C14.3708 37.6099 13.7368 37.633 13.1061 37.6794C13.0598 37.6825 13.0143 37.6873 12.968 37.6913C13.0542 37.2658 13.1037 36.8442 13.1037 36.3939C13.1037 35.7672 13.1229 35.1396 13.1077 34.5137C13.0766 33.2594 13.0566 32.0051 13.0582 30.75C13.0582 30.481 13.0654 30.2127 13.0694 29.9444C13.075 29.5748 13.0789 30.1584 13.0885 29.7983C13.0885 29.7696 13.0885 29.7488 13.0885 29.7336C13.0957 29.7265 13.1061 29.7113 13.1189 29.6873C13.146 29.6802 13.1772 29.6802 13.2282 29.669C13.5692 29.5955 13.9141 29.5388 14.255 29.4662C15.4502 29.2107 16.6294 28.9065 17.835 28.6941C20.136 28.2893 22.3532 28.0442 24.7636 27.9796C25.34 27.9644 25.9229 27.9428 26.5001 27.9716C26.528 27.9732 26.7348 28.0011 26.742 27.9971C26.8099 28.0131 26.8762 28.0314 26.944 28.049C26.7987 28.0099 26.9185 28.0155 26.9728 28.0562C26.9752 28.0562 26.9768 28.057 26.9791 28.0578C26.9791 28.0578 26.9752 28.057 26.9728 28.0562C26.9775 28.0594 26.9815 28.0634 26.9855 28.0674C26.9903 28.0746 26.9935 28.0802 26.9991 28.0889C26.9991 28.0841 26.9991 28.0809 26.9983 28.077C26.9975 28.077 26.9967 28.0762 26.9959 28.0754C26.9959 28.0754 26.9951 28.0738 26.9943 28.0738C26.9959 28.0738 26.9967 28.0754 26.9975 28.0762C26.9831 27.9229 26.9935 27.9931 27.0063 28.0817C27.1069 28.1464 27.1077 28.1464 27.0063 28.0825C27.0143 28.136 27.0231 28.1951 27.0278 28.2143C26.956 27.9348 27.0191 28.2774 27.0223 28.3388C27.0239 28.3716 27.0263 28.3947 27.0286 28.4115C27.0207 28.4307 27.0111 28.4594 26.9991 28.4993C26.9584 28.6334 26.9265 28.7684 26.8801 28.9017C26.8402 29.0167 26.7955 29.1293 26.75 29.2418C26.7396 29.265 26.7021 29.356 26.6973 29.3664C26.536 29.7424 26.3787 30.1201 26.2302 30.5017C25.7496 31.736 25.356 33.0047 25.0518 34.2933C24.8171 35.2873 24.5919 36.3245 24.4793 37.3568C22.5847 37.3863 20.6901 37.4183 18.7955 37.4574V37.4566Z" fill="#F8F9FA"/>
</g>
<defs>
<clipPath id="clip0_2777_7196">
<rect width="40" height="40" fill="white"/>
</clipPath>
</defs>
</svg>
