<svg width="32" height="32" viewBox="0 0 32 32" fill="none" xmlns="http://www.w3.org/2000/svg">
<mask id="mask0_2710_1042" style="mask-type:alpha" maskUnits="userSpaceOnUse" x="0" y="0" width="32" height="32">
<rect width="32" height="32" fill="#D9D9D9"/>
</mask>
<g mask="url(#mask0_2710_1042)">
<path d="M6.4 25.2C5.74 25.2 5.175 24.965 4.705 24.495C4.235 24.025 4 23.46 4 22.8V8.4C4 7.74 4.235 7.175 4.705 6.705C5.175 6.235 5.74 6 6.4 6H25.6C26.26 6 26.825 6.235 27.295 6.705C27.765 7.175 28 7.74 28 8.4V22.8C28 23.46 27.765 24.025 27.295 24.495C26.825 24.965 26.26 25.2 25.6 25.2H6.4ZM16 16.59C16.1 16.59 16.205 16.575 16.315 16.545C16.425 16.515 16.53 16.47 16.63 16.41L25.12 11.1C25.28 11 25.4 10.875 25.48 10.725C25.56 10.575 25.6 10.41 25.6 10.23C25.6 9.83 25.43 9.53 25.09 9.33C24.75 9.13 24.4 9.14 24.04 9.36L16 14.4L7.96 9.36C7.6 9.14 7.25 9.135 6.91 9.345C6.57 9.555 6.4 9.85 6.4 10.23C6.4 10.43 6.44 10.605 6.52 10.755C6.6 10.905 6.72 11.02 6.88 11.1L15.37 16.41C15.47 16.47 15.575 16.515 15.685 16.545C15.795 16.575 15.9 16.59 16 16.59Z" fill="#F8F9FA"/>
</g>
</svg>
