<svg width="32" height="32" viewBox="0 0 32 32" fill="none" xmlns="http://www.w3.org/2000/svg">
<path d="M24.3527 4H7.64731C5.63282 4 4 5.63282 4 7.64731V24.3532C4 26.3672 5.63282 28 7.64731 28H24.3527C26.3672 28 28 26.3672 28 24.3532V7.64731C28 5.63282 26.3672 4 24.3527 4ZM13.2319 25.5855H10.1518V15.6775H13.2319V25.5855ZM13.4819 12.7385C13.4758 12.7969 13.4674 12.8546 13.4558 12.9124C13.4441 12.9702 13.4302 13.0269 13.413 13.083C13.3958 13.1391 13.3763 13.1947 13.3535 13.2485C13.3313 13.303 13.3063 13.3558 13.2785 13.408C13.2508 13.4597 13.2208 13.5102 13.188 13.5591C13.1558 13.6074 13.1208 13.6547 13.083 13.7002C13.0463 13.7458 13.0069 13.7891 12.9652 13.8302C12.9235 13.8719 12.8802 13.9113 12.8352 13.9486C12.7896 13.9858 12.7424 14.0208 12.6935 14.0536C12.6446 14.0863 12.5946 14.1163 12.5424 14.1441C12.4908 14.1713 12.4374 14.1963 12.3835 14.2191C12.3296 14.2413 12.2741 14.2613 12.218 14.278C12.1619 14.2952 12.1046 14.3097 12.0474 14.3208C11.9896 14.3325 11.9313 14.3414 11.873 14.3469C11.8146 14.3525 11.7563 14.3552 11.6974 14.3552C11.6385 14.3552 11.5802 14.3525 11.5218 14.3469C11.4635 14.3414 11.4052 14.3325 11.3474 14.3208C11.2902 14.3097 11.2335 14.2952 11.1768 14.278C11.1207 14.2613 11.0657 14.2413 11.0113 14.2191C10.9568 14.1963 10.904 14.1713 10.8524 14.1441C10.8007 14.1163 10.7502 14.0863 10.7013 14.0536C10.6524 14.0208 10.6052 13.9858 10.5602 13.9486C10.5146 13.9113 10.4713 13.8719 10.4296 13.8302C10.3879 13.7891 10.349 13.7458 10.3113 13.7002C10.2746 13.6547 10.2396 13.6074 10.2068 13.5591C10.174 13.5102 10.144 13.4597 10.1163 13.408C10.0885 13.3558 10.0635 13.303 10.0413 13.2485C10.0185 13.1947 9.99903 13.1391 9.9818 13.083C9.96458 13.0269 9.95069 12.9702 9.93903 12.9124C9.92736 12.8546 9.91903 12.7969 9.91347 12.7385C9.90736 12.6802 9.90458 12.6213 9.90458 12.5624C9.90458 12.5035 9.90736 12.4452 9.91347 12.3869C9.91903 12.3285 9.92736 12.2707 9.93903 12.213C9.95069 12.1557 9.96458 12.0985 9.9818 12.0424C9.99903 11.9863 10.0185 11.9307 10.0413 11.8763C10.0635 11.8224 10.0885 11.7696 10.1163 11.718C10.144 11.6657 10.174 11.6157 10.2068 11.5668C10.2396 11.518 10.2746 11.4707 10.3113 11.4252C10.349 11.3802 10.3879 11.3368 10.4296 11.2952C10.4713 11.2535 10.5146 11.2141 10.5602 11.1768C10.6052 11.1396 10.6524 11.1046 10.7013 11.0724C10.7502 11.0396 10.8007 11.0091 10.8524 10.9813C10.904 10.9535 10.9568 10.929 11.0113 10.9063C11.0657 10.8835 11.1207 10.864 11.1768 10.8468C11.2335 10.8302 11.2902 10.8157 11.3474 10.804C11.4052 10.7929 11.4635 10.784 11.5218 10.7785C11.5802 10.7724 11.6385 10.7696 11.6974 10.7696C11.7563 10.7696 11.8146 10.7724 11.873 10.7785C11.9313 10.784 11.9896 10.7929 12.0474 10.804C12.1046 10.8157 12.1619 10.8302 12.218 10.8468C12.2741 10.864 12.3296 10.8835 12.3835 10.9063C12.4374 10.929 12.4908 10.9535 12.5424 10.9813C12.5946 11.0091 12.6446 11.0396 12.6935 11.0724C12.7424 11.1046 12.7896 11.1396 12.8352 11.1768C12.8802 11.2141 12.9235 11.2535 12.9652 11.2952C13.0069 11.3368 13.0463 11.3802 13.083 11.4252C13.1208 11.4707 13.1558 11.518 13.188 11.5668C13.2208 11.6157 13.2508 11.6657 13.2785 11.718C13.3063 11.7696 13.3313 11.8224 13.3535 11.8763C13.3763 11.9307 13.3958 11.9863 13.413 12.0424C13.4302 12.0985 13.4441 12.1557 13.4558 12.213C13.4674 12.2707 13.4758 12.3285 13.4819 12.3869C13.4874 12.4452 13.4902 12.5041 13.4902 12.5624C13.4902 12.6208 13.4874 12.6802 13.4819 12.7385ZM24.7483 19.9098V25.5855H21.6782C21.6782 25.5855 21.6682 20.4626 21.6682 20.1715C21.6682 19.8804 21.5326 19.1931 21.5326 19.1931C21.1743 17.9531 19.9248 18.1714 19.9248 18.1714C18.8592 18.1764 18.5203 18.9992 18.5203 18.9992C18.1814 19.6676 18.2276 20.9526 18.2276 20.9526V25.5855H15.1691V15.6775H18.1009V17.0447C18.1398 17.032 18.1653 17.0142 18.1653 17.0142C19.8826 14.4052 23.0466 15.8258 23.0466 15.8258C24.971 16.7036 24.7483 19.9098 24.7483 19.9098Z" fill="#F8F9FA"/>
</svg>
