<svg width="65" height="72" viewBox="0 0 65 72" fill="none" xmlns="http://www.w3.org/2000/svg">
<path d="M32.1844 72C31.8094 72 31.3594 72 30.9844 71.85L8.33438 65.55C6.53438 65.025 5.18438 63.45 5.03438 61.65L0.009375 4.95C-0.065625 3.675 0.309375 2.475 1.13438 1.5C1.95938 0.525 3.15938 0 4.43438 0H60.0094C61.2844 0 62.4844 0.525 63.3094 1.5C64.1344 2.475 64.5844 3.675 64.4344 4.95L59.4094 61.65C59.2594 63.525 57.9094 65.1 56.1094 65.55L33.3094 71.85C32.9344 71.925 32.4844 72 32.1094 72H32.1844Z" fill="white"/>
<path d="M9.54063 61.2L4.51562 4.5H60.0906L55.0656 61.2L32.2656 67.5" fill="#E44D26"/>
<path d="M32.2656 62.6945V9.14453H54.9906L50.6406 57.5195" fill="#F16529"/>
<path d="M14.7969 16.125H32.2719V23.1H22.4469L23.1219 30.225H32.3469V37.125H16.8219M17.0469 40.575H24.0219L24.5469 46.125L32.3469 48.225V55.5L18.0969 51.525" fill="#EBEBEB"/>
<path d="M49.6703 16.125H32.2703V23.1H49.0703M48.3953 30.15H32.2703V37.125H40.8203L39.9953 46.125L32.1953 48.225V55.425L46.4453 51.45" fill="white"/>
</svg>
